<svg width="403" height="62" viewBox="0 0 403 62" fill="none" xmlns="http://www.w3.org/2000/svg">
<rect opacity="0.76" x="0.5" y="0.5" width="402" height="61" rx="30.5" stroke="#E4EAED"/>
<path d="M88.9258 34.3379C88.9258 34.0449 88.8802 33.7845 88.7891 33.5566C88.7044 33.3288 88.5514 33.1204 88.3301 32.9316C88.1087 32.7428 87.7962 32.5605 87.3926 32.3848C86.9954 32.2025 86.4876 32.0169 85.8691 31.8281C85.1921 31.6198 84.5671 31.3887 83.9941 31.1348C83.4277 30.8743 82.9329 30.5749 82.5098 30.2363C82.0866 29.8913 81.7578 29.4974 81.5234 29.0547C81.2891 28.6055 81.1719 28.0879 81.1719 27.502C81.1719 26.9225 81.2923 26.3952 81.5332 25.9199C81.7806 25.4447 82.1289 25.0345 82.5781 24.6895C83.0339 24.3379 83.571 24.0677 84.1895 23.8789C84.8079 23.6836 85.4915 23.5859 86.2402 23.5859C87.2949 23.5859 88.2031 23.7812 88.9648 24.1719C89.7331 24.5625 90.3223 25.0866 90.7324 25.7441C91.1491 26.4017 91.3574 27.1276 91.3574 27.9219H88.9258C88.9258 27.4531 88.8249 27.0397 88.623 26.6816C88.4277 26.3171 88.1283 26.0306 87.7246 25.8223C87.3275 25.6139 86.8229 25.5098 86.2109 25.5098C85.6315 25.5098 85.1497 25.5977 84.7656 25.7734C84.3815 25.9492 84.0951 26.1868 83.9062 26.4863C83.7174 26.7858 83.623 27.1243 83.623 27.502C83.623 27.7689 83.6849 28.013 83.8086 28.2344C83.9323 28.4492 84.1211 28.651 84.375 28.8398C84.6289 29.0221 84.9479 29.1947 85.332 29.3574C85.7161 29.5202 86.1686 29.6764 86.6895 29.8262C87.4772 30.0605 88.1641 30.321 88.75 30.6074C89.3359 30.8874 89.8242 31.2064 90.2148 31.5645C90.6055 31.9225 90.8984 32.3294 91.0938 32.7852C91.2891 33.2344 91.3867 33.7454 91.3867 34.3184C91.3867 34.9173 91.2663 35.4577 91.0254 35.9395C90.7845 36.4147 90.4395 36.8216 89.9902 37.1602C89.5475 37.4922 89.0137 37.7493 88.3887 37.9316C87.7702 38.1074 87.0801 38.1953 86.3184 38.1953C85.6348 38.1953 84.9609 38.1042 84.2969 37.9219C83.6393 37.7396 83.0404 37.4629 82.5 37.0918C81.9596 36.7142 81.5299 36.2454 81.2109 35.6855C80.8919 35.1191 80.7324 34.4583 80.7324 33.7031H83.1836C83.1836 34.1654 83.2617 34.5592 83.418 34.8848C83.5807 35.2103 83.8053 35.4772 84.0918 35.6855C84.3783 35.8874 84.7103 36.0371 85.0879 36.1348C85.472 36.2324 85.8822 36.2812 86.3184 36.2812C86.8913 36.2812 87.3698 36.1999 87.7539 36.0371C88.1445 35.8743 88.4375 35.6465 88.6328 35.3535C88.8281 35.0605 88.9258 34.722 88.9258 34.3379ZM95.8398 27.4336V38H93.4766V27.4336H95.8398ZM93.3203 24.6602C93.3203 24.3021 93.4375 24.0059 93.6719 23.7715C93.9128 23.5306 94.2448 23.4102 94.668 23.4102C95.0846 23.4102 95.4134 23.5306 95.6543 23.7715C95.8952 24.0059 96.0156 24.3021 96.0156 24.6602C96.0156 25.0117 95.8952 25.3047 95.6543 25.5391C95.4134 25.7734 95.0846 25.8906 94.668 25.8906C94.2448 25.8906 93.9128 25.7734 93.6719 25.5391C93.4375 25.3047 93.3203 25.0117 93.3203 24.6602ZM105.186 27.4336H107.324V37.707C107.324 38.6576 107.122 39.4648 106.719 40.1289C106.315 40.793 105.752 41.2975 105.029 41.6426C104.307 41.9941 103.47 42.1699 102.52 42.1699C102.116 42.1699 101.667 42.1113 101.172 41.9941C100.684 41.877 100.208 41.6882 99.7461 41.4277C99.2904 41.1738 98.9095 40.8385 98.6035 40.4219L99.707 39.0352C100.085 39.4844 100.501 39.8132 100.957 40.0215C101.413 40.2298 101.891 40.334 102.393 40.334C102.933 40.334 103.392 40.2331 103.77 40.0312C104.154 39.8359 104.45 39.5462 104.658 39.1621C104.867 38.778 104.971 38.3092 104.971 37.7559V29.8262L105.186 27.4336ZM98.0078 32.834V32.6289C98.0078 31.8281 98.1055 31.099 98.3008 30.4414C98.4961 29.7773 98.776 29.2077 99.1406 28.7324C99.5052 28.2507 99.9479 27.8828 100.469 27.6289C100.99 27.3685 101.579 27.2383 102.236 27.2383C102.92 27.2383 103.503 27.362 103.984 27.6094C104.473 27.8568 104.88 28.2116 105.205 28.6738C105.531 29.1296 105.785 29.6764 105.967 30.3145C106.156 30.946 106.296 31.6491 106.387 32.4238V33.0781C106.302 33.8333 106.159 34.5234 105.957 35.1484C105.755 35.7734 105.488 36.3138 105.156 36.7695C104.824 37.2253 104.414 37.5768 103.926 37.8242C103.444 38.0716 102.874 38.1953 102.217 38.1953C101.572 38.1953 100.99 38.0618 100.469 37.7949C99.9544 37.528 99.5117 37.1536 99.1406 36.6719C98.776 36.1901 98.4961 35.6237 98.3008 34.9727C98.1055 34.3151 98.0078 33.6022 98.0078 32.834ZM100.361 32.6289V32.834C100.361 33.3158 100.407 33.765 100.498 34.1816C100.596 34.5983 100.742 34.9661 100.938 35.2852C101.139 35.5977 101.393 35.8451 101.699 36.0273C102.012 36.2031 102.38 36.291 102.803 36.291C103.356 36.291 103.809 36.1738 104.16 35.9395C104.518 35.7051 104.792 35.3893 104.98 34.9922C105.176 34.5885 105.312 34.1393 105.391 33.6445V31.877C105.352 31.4928 105.27 31.1348 105.146 30.8027C105.029 30.4707 104.87 30.181 104.668 29.9336C104.466 29.6797 104.212 29.4844 103.906 29.3477C103.6 29.2044 103.239 29.1328 102.822 29.1328C102.399 29.1328 102.031 29.224 101.719 29.4062C101.406 29.5885 101.149 29.8392 100.947 30.1582C100.752 30.4772 100.605 30.8483 100.508 31.2715C100.41 31.6947 100.361 32.1471 100.361 32.6289ZM112.1 29.6895V38H109.746V27.4336H111.963L112.1 29.6895ZM111.68 32.3262L110.918 32.3164C110.924 31.5677 111.029 30.8809 111.23 30.2559C111.439 29.6309 111.725 29.0938 112.09 28.6445C112.461 28.1953 112.904 27.8503 113.418 27.6094C113.932 27.362 114.505 27.2383 115.137 27.2383C115.645 27.2383 116.104 27.3099 116.514 27.4531C116.93 27.5898 117.285 27.8145 117.578 28.127C117.878 28.4395 118.105 28.8464 118.262 29.3477C118.418 29.8424 118.496 30.4512 118.496 31.1738V38H116.133V31.1641C116.133 30.6562 116.058 30.2559 115.908 29.9629C115.765 29.6634 115.553 29.4518 115.273 29.3281C115 29.1979 114.658 29.1328 114.248 29.1328C113.844 29.1328 113.483 29.2174 113.164 29.3867C112.845 29.556 112.575 29.7871 112.354 30.0801C112.139 30.373 111.973 30.7116 111.855 31.0957C111.738 31.4798 111.68 31.89 111.68 32.3262ZM132.236 35.5098V27.4336H134.6V38H132.373L132.236 35.5098ZM132.568 33.3125L133.359 33.293C133.359 34.0026 133.281 34.6569 133.125 35.2559C132.969 35.8483 132.728 36.3659 132.402 36.8086C132.077 37.2448 131.66 37.5866 131.152 37.834C130.645 38.0749 130.036 38.1953 129.326 38.1953C128.812 38.1953 128.34 38.1204 127.91 37.9707C127.48 37.821 127.109 37.5898 126.797 37.2773C126.491 36.9648 126.253 36.5579 126.084 36.0566C125.915 35.5553 125.83 34.9564 125.83 34.2598V27.4336H128.184V34.2793C128.184 34.6634 128.229 34.9857 128.32 35.2461C128.411 35.5 128.535 35.7051 128.691 35.8613C128.848 36.0176 129.03 36.1283 129.238 36.1934C129.447 36.2585 129.668 36.291 129.902 36.291C130.573 36.291 131.1 36.1608 131.484 35.9004C131.875 35.6335 132.152 35.2754 132.314 34.8262C132.484 34.377 132.568 33.8724 132.568 33.3125ZM139.375 29.4648V42.0625H137.021V27.4336H139.189L139.375 29.4648ZM146.26 32.6191V32.8242C146.26 33.5924 146.169 34.3053 145.986 34.9629C145.811 35.6139 145.547 36.1836 145.195 36.6719C144.85 37.1536 144.424 37.528 143.916 37.7949C143.408 38.0618 142.822 38.1953 142.158 38.1953C141.501 38.1953 140.924 38.0749 140.43 37.834C139.941 37.5866 139.528 37.2383 139.189 36.7891C138.851 36.3398 138.577 35.8125 138.369 35.207C138.167 34.5951 138.024 33.9245 137.939 33.1953V32.4043C138.024 31.6296 138.167 30.9264 138.369 30.2949C138.577 29.6634 138.851 29.1198 139.189 28.6641C139.528 28.2083 139.941 27.8568 140.43 27.6094C140.918 27.362 141.488 27.2383 142.139 27.2383C142.803 27.2383 143.392 27.3685 143.906 27.6289C144.421 27.8828 144.854 28.2474 145.205 28.7227C145.557 29.1914 145.82 29.7578 145.996 30.4219C146.172 31.0794 146.26 31.8118 146.26 32.6191ZM143.906 32.8242V32.6191C143.906 32.1309 143.861 31.6784 143.77 31.2617C143.678 30.8385 143.535 30.4674 143.34 30.1484C143.145 29.8294 142.894 29.582 142.588 29.4062C142.288 29.224 141.927 29.1328 141.504 29.1328C141.087 29.1328 140.729 29.2044 140.43 29.3477C140.13 29.4844 139.88 29.6764 139.678 29.9238C139.476 30.1712 139.32 30.4609 139.209 30.793C139.098 31.1185 139.02 31.4733 138.975 31.8574V33.752C139.053 34.2207 139.186 34.6504 139.375 35.041C139.564 35.4316 139.831 35.7441 140.176 35.9785C140.527 36.2064 140.977 36.3203 141.523 36.3203C141.947 36.3203 142.308 36.2292 142.607 36.0469C142.907 35.8646 143.151 35.6139 143.34 35.2949C143.535 34.9694 143.678 34.5951 143.77 34.1719C143.861 33.7487 143.906 33.2995 143.906 32.8242ZM156.113 35.6562L158.555 27.4336H160.059L159.648 29.8945L157.188 38H155.84L156.113 35.6562ZM154.678 27.4336L156.582 35.6953L156.738 38H155.234L152.373 27.4336H154.678ZM162.344 35.5977L164.189 27.4336H166.484L163.633 38H162.129L162.344 35.5977ZM160.312 27.4336L162.725 35.5586L163.027 38H161.68L159.189 29.8848L158.779 27.4336H160.312ZM170.605 27.4336V38H168.242V27.4336H170.605ZM168.086 24.6602C168.086 24.3021 168.203 24.0059 168.438 23.7715C168.678 23.5306 169.01 23.4102 169.434 23.4102C169.85 23.4102 170.179 23.5306 170.42 23.7715C170.661 24.0059 170.781 24.3021 170.781 24.6602C170.781 25.0117 170.661 25.3047 170.42 25.5391C170.179 25.7734 169.85 25.8906 169.434 25.8906C169.01 25.8906 168.678 25.7734 168.438 25.5391C168.203 25.3047 168.086 25.0117 168.086 24.6602ZM178.027 27.4336V29.1523H172.07V27.4336H178.027ZM173.789 24.8457H176.143V35.0801C176.143 35.4056 176.188 35.6562 176.279 35.832C176.377 36.0013 176.51 36.1152 176.68 36.1738C176.849 36.2324 177.048 36.2617 177.275 36.2617C177.438 36.2617 177.594 36.252 177.744 36.2324C177.894 36.2129 178.014 36.1934 178.105 36.1738L178.115 37.9707C177.92 38.0293 177.692 38.0814 177.432 38.127C177.178 38.1725 176.885 38.1953 176.553 38.1953C176.012 38.1953 175.534 38.1009 175.117 37.9121C174.701 37.7168 174.375 37.401 174.141 36.9648C173.906 36.5286 173.789 35.9492 173.789 35.2266V24.8457ZM182.168 23V38H179.824V23H182.168ZM181.758 32.3262L180.996 32.3164C181.003 31.5872 181.104 30.9134 181.299 30.2949C181.501 29.6764 181.781 29.1393 182.139 28.6836C182.503 28.2214 182.939 27.8665 183.447 27.6191C183.955 27.3652 184.518 27.2383 185.137 27.2383C185.658 27.2383 186.126 27.3099 186.543 27.4531C186.966 27.5964 187.331 27.8275 187.637 28.1465C187.943 28.459 188.174 28.8691 188.33 29.377C188.493 29.8783 188.574 30.4902 188.574 31.2129V38H186.211V31.1934C186.211 30.6855 186.136 30.2819 185.986 29.9824C185.843 29.6829 185.632 29.4681 185.352 29.3379C185.072 29.2012 184.73 29.1328 184.326 29.1328C183.903 29.1328 183.529 29.2174 183.203 29.3867C182.884 29.556 182.617 29.7871 182.402 30.0801C182.188 30.373 182.025 30.7116 181.914 31.0957C181.81 31.4798 181.758 31.89 181.758 32.3262ZM198.301 29.4648V42.0625H195.947V27.4336H198.115L198.301 29.4648ZM205.186 32.6191V32.8242C205.186 33.5924 205.094 34.3053 204.912 34.9629C204.736 35.6139 204.473 36.1836 204.121 36.6719C203.776 37.1536 203.35 37.528 202.842 37.7949C202.334 38.0618 201.748 38.1953 201.084 38.1953C200.426 38.1953 199.85 38.0749 199.355 37.834C198.867 37.5866 198.454 37.2383 198.115 36.7891C197.777 36.3398 197.503 35.8125 197.295 35.207C197.093 34.5951 196.95 33.9245 196.865 33.1953V32.4043C196.95 31.6296 197.093 30.9264 197.295 30.2949C197.503 29.6634 197.777 29.1198 198.115 28.6641C198.454 28.2083 198.867 27.8568 199.355 27.6094C199.844 27.362 200.413 27.2383 201.064 27.2383C201.729 27.2383 202.318 27.3685 202.832 27.6289C203.346 27.8828 203.779 28.2474 204.131 28.7227C204.482 29.1914 204.746 29.7578 204.922 30.4219C205.098 31.0794 205.186 31.8118 205.186 32.6191ZM202.832 32.8242V32.6191C202.832 32.1309 202.786 31.6784 202.695 31.2617C202.604 30.8385 202.461 30.4674 202.266 30.1484C202.07 29.8294 201.82 29.582 201.514 29.4062C201.214 29.224 200.853 29.1328 200.43 29.1328C200.013 29.1328 199.655 29.2044 199.355 29.3477C199.056 29.4844 198.805 29.6764 198.604 29.9238C198.402 30.1712 198.245 30.4609 198.135 30.793C198.024 31.1185 197.946 31.4733 197.9 31.8574V33.752C197.979 34.2207 198.112 34.6504 198.301 35.041C198.49 35.4316 198.757 35.7441 199.102 35.9785C199.453 36.2064 199.902 36.3203 200.449 36.3203C200.872 36.3203 201.234 36.2292 201.533 36.0469C201.833 35.8646 202.077 35.6139 202.266 35.2949C202.461 34.9694 202.604 34.5951 202.695 34.1719C202.786 33.7487 202.832 33.2995 202.832 32.8242ZM209.512 23V38H207.168V23H209.512ZM209.102 32.3262L208.34 32.3164C208.346 31.5872 208.447 30.9134 208.643 30.2949C208.844 29.6764 209.124 29.1393 209.482 28.6836C209.847 28.2214 210.283 27.8665 210.791 27.6191C211.299 27.3652 211.862 27.2383 212.48 27.2383C213.001 27.2383 213.47 27.3099 213.887 27.4531C214.31 27.5964 214.674 27.8275 214.98 28.1465C215.286 28.459 215.518 28.8691 215.674 29.377C215.837 29.8783 215.918 30.4902 215.918 31.2129V38H213.555V31.1934C213.555 30.6855 213.48 30.2819 213.33 29.9824C213.187 29.6829 212.975 29.4681 212.695 29.3379C212.415 29.2012 212.074 29.1328 211.67 29.1328C211.247 29.1328 210.872 29.2174 210.547 29.3867C210.228 29.556 209.961 29.7871 209.746 30.0801C209.531 30.373 209.368 30.7116 209.258 31.0957C209.154 31.4798 209.102 31.89 209.102 32.3262ZM217.852 32.834V32.6094C217.852 31.8477 217.962 31.1413 218.184 30.4902C218.405 29.8327 218.724 29.263 219.141 28.7812C219.564 28.293 220.078 27.9154 220.684 27.6484C221.296 27.375 221.986 27.2383 222.754 27.2383C223.529 27.2383 224.219 27.375 224.824 27.6484C225.436 27.9154 225.954 28.293 226.377 28.7812C226.8 29.263 227.122 29.8327 227.344 30.4902C227.565 31.1413 227.676 31.8477 227.676 32.6094V32.834C227.676 33.5957 227.565 34.3021 227.344 34.9531C227.122 35.6042 226.8 36.1738 226.377 36.6621C225.954 37.1439 225.439 37.5215 224.834 37.7949C224.229 38.0618 223.542 38.1953 222.773 38.1953C221.999 38.1953 221.305 38.0618 220.693 37.7949C220.088 37.5215 219.574 37.1439 219.15 36.6621C218.727 36.1738 218.405 35.6042 218.184 34.9531C217.962 34.3021 217.852 33.5957 217.852 32.834ZM220.205 32.6094V32.834C220.205 33.3092 220.254 33.7585 220.352 34.1816C220.449 34.6048 220.602 34.9759 220.811 35.2949C221.019 35.6139 221.286 35.8646 221.611 36.0469C221.937 36.2292 222.324 36.3203 222.773 36.3203C223.21 36.3203 223.587 36.2292 223.906 36.0469C224.232 35.8646 224.499 35.6139 224.707 35.2949C224.915 34.9759 225.068 34.6048 225.166 34.1816C225.27 33.7585 225.322 33.3092 225.322 32.834V32.6094C225.322 32.1406 225.27 31.6979 225.166 31.2812C225.068 30.8581 224.912 30.4837 224.697 30.1582C224.489 29.8327 224.222 29.5788 223.896 29.3965C223.577 29.2077 223.197 29.1133 222.754 29.1133C222.311 29.1133 221.927 29.2077 221.602 29.3965C221.283 29.5788 221.019 29.8327 220.811 30.1582C220.602 30.4837 220.449 30.8581 220.352 31.2812C220.254 31.6979 220.205 32.1406 220.205 32.6094ZM231.982 29.6895V38H229.629V27.4336H231.846L231.982 29.6895ZM231.562 32.3262L230.801 32.3164C230.807 31.5677 230.911 30.8809 231.113 30.2559C231.322 29.6309 231.608 29.0938 231.973 28.6445C232.344 28.1953 232.786 27.8503 233.301 27.6094C233.815 27.362 234.388 27.2383 235.02 27.2383C235.527 27.2383 235.986 27.3099 236.396 27.4531C236.813 27.5898 237.168 27.8145 237.461 28.127C237.76 28.4395 237.988 28.8464 238.145 29.3477C238.301 29.8424 238.379 30.4512 238.379 31.1738V38H236.016V31.1641C236.016 30.6562 235.941 30.2559 235.791 29.9629C235.648 29.6634 235.436 29.4518 235.156 29.3281C234.883 29.1979 234.541 29.1328 234.131 29.1328C233.727 29.1328 233.366 29.2174 233.047 29.3867C232.728 29.556 232.458 29.7871 232.236 30.0801C232.021 30.373 231.855 30.7116 231.738 31.0957C231.621 31.4798 231.562 31.89 231.562 32.3262ZM245.439 38.1953C244.658 38.1953 243.952 38.0684 243.32 37.8145C242.695 37.554 242.161 37.1927 241.719 36.7305C241.283 36.2682 240.947 35.7246 240.713 35.0996C240.479 34.4746 240.361 33.8008 240.361 33.0781V32.6875C240.361 31.8607 240.482 31.112 240.723 30.4414C240.964 29.7708 241.299 29.1979 241.729 28.7227C242.158 28.2409 242.666 27.873 243.252 27.6191C243.838 27.3652 244.473 27.2383 245.156 27.2383C245.911 27.2383 246.572 27.3652 247.139 27.6191C247.705 27.873 248.174 28.2311 248.545 28.6934C248.923 29.1491 249.202 29.6927 249.385 30.3242C249.574 30.9557 249.668 31.6523 249.668 32.4141V33.4199H241.504V31.7305H247.344V31.5449C247.331 31.1217 247.246 30.7246 247.09 30.3535C246.94 29.9824 246.709 29.6829 246.396 29.4551C246.084 29.2272 245.667 29.1133 245.146 29.1133C244.756 29.1133 244.408 29.1979 244.102 29.3672C243.802 29.5299 243.551 29.7676 243.35 30.0801C243.148 30.3926 242.992 30.7702 242.881 31.2129C242.777 31.6491 242.725 32.1406 242.725 32.6875V33.0781C242.725 33.5404 242.786 33.9701 242.91 34.3672C243.04 34.7578 243.229 35.0996 243.477 35.3926C243.724 35.6855 244.023 35.9167 244.375 36.0859C244.727 36.2487 245.127 36.3301 245.576 36.3301C246.143 36.3301 246.647 36.2161 247.09 35.9883C247.533 35.7604 247.917 35.4382 248.242 35.0215L249.482 36.2227C249.255 36.5547 248.958 36.8737 248.594 37.1797C248.229 37.4792 247.783 37.7233 247.256 37.9121C246.735 38.1009 246.13 38.1953 245.439 38.1953ZM256.035 32.834V32.6094C256.035 31.8477 256.146 31.1413 256.367 30.4902C256.589 29.8327 256.908 29.263 257.324 28.7812C257.747 28.293 258.262 27.9154 258.867 27.6484C259.479 27.375 260.169 27.2383 260.938 27.2383C261.712 27.2383 262.402 27.375 263.008 27.6484C263.62 27.9154 264.137 28.293 264.561 28.7812C264.984 29.263 265.306 29.8327 265.527 30.4902C265.749 31.1413 265.859 31.8477 265.859 32.6094V32.834C265.859 33.5957 265.749 34.3021 265.527 34.9531C265.306 35.6042 264.984 36.1738 264.561 36.6621C264.137 37.1439 263.623 37.5215 263.018 37.7949C262.412 38.0618 261.725 38.1953 260.957 38.1953C260.182 38.1953 259.489 38.0618 258.877 37.7949C258.271 37.5215 257.757 37.1439 257.334 36.6621C256.911 36.1738 256.589 35.6042 256.367 34.9531C256.146 34.3021 256.035 33.5957 256.035 32.834ZM258.389 32.6094V32.834C258.389 33.3092 258.438 33.7585 258.535 34.1816C258.633 34.6048 258.786 34.9759 258.994 35.2949C259.202 35.6139 259.469 35.8646 259.795 36.0469C260.12 36.2292 260.508 36.3203 260.957 36.3203C261.393 36.3203 261.771 36.2292 262.09 36.0469C262.415 35.8646 262.682 35.6139 262.891 35.2949C263.099 34.9759 263.252 34.6048 263.35 34.1816C263.454 33.7585 263.506 33.3092 263.506 32.834V32.6094C263.506 32.1406 263.454 31.6979 263.35 31.2812C263.252 30.8581 263.096 30.4837 262.881 30.1582C262.673 29.8327 262.406 29.5788 262.08 29.3965C261.761 29.2077 261.38 29.1133 260.938 29.1133C260.495 29.1133 260.111 29.2077 259.785 29.3965C259.466 29.5788 259.202 29.8327 258.994 30.1582C258.786 30.4837 258.633 30.8581 258.535 31.2812C258.438 31.6979 258.389 32.1406 258.389 32.6094ZM270.195 29.4453V38H267.842V27.4336H270.088L270.195 29.4453ZM273.428 27.3652L273.408 29.5527C273.265 29.5267 273.109 29.5072 272.939 29.4941C272.777 29.4811 272.614 29.4746 272.451 29.4746C272.048 29.4746 271.693 29.5332 271.387 29.6504C271.081 29.7611 270.824 29.9238 270.615 30.1387C270.413 30.347 270.257 30.6009 270.146 30.9004C270.036 31.1999 269.971 31.5352 269.951 31.9062L269.414 31.9453C269.414 31.2812 269.479 30.666 269.609 30.0996C269.74 29.5332 269.935 29.0352 270.195 28.6055C270.462 28.1758 270.794 27.8405 271.191 27.5996C271.595 27.3587 272.061 27.2383 272.588 27.2383C272.731 27.2383 272.884 27.2513 273.047 27.2773C273.216 27.3034 273.343 27.3327 273.428 27.3652ZM284.541 38.1953C283.76 38.1953 283.053 38.0684 282.422 37.8145C281.797 37.554 281.263 37.1927 280.82 36.7305C280.384 36.2682 280.049 35.7246 279.814 35.0996C279.58 34.4746 279.463 33.8008 279.463 33.0781V32.6875C279.463 31.8607 279.583 31.112 279.824 30.4414C280.065 29.7708 280.4 29.1979 280.83 28.7227C281.26 28.2409 281.768 27.873 282.354 27.6191C282.939 27.3652 283.574 27.2383 284.258 27.2383C285.013 27.2383 285.674 27.3652 286.24 27.6191C286.807 27.873 287.275 28.2311 287.646 28.6934C288.024 29.1491 288.304 29.6927 288.486 30.3242C288.675 30.9557 288.77 31.6523 288.77 32.4141V33.4199H280.605V31.7305H286.445V31.5449C286.432 31.1217 286.348 30.7246 286.191 30.3535C286.042 29.9824 285.811 29.6829 285.498 29.4551C285.186 29.2272 284.769 29.1133 284.248 29.1133C283.857 29.1133 283.509 29.1979 283.203 29.3672C282.904 29.5299 282.653 29.7676 282.451 30.0801C282.249 30.3926 282.093 30.7702 281.982 31.2129C281.878 31.6491 281.826 32.1406 281.826 32.6875V33.0781C281.826 33.5404 281.888 33.9701 282.012 34.3672C282.142 34.7578 282.331 35.0996 282.578 35.3926C282.826 35.6855 283.125 35.9167 283.477 36.0859C283.828 36.2487 284.229 36.3301 284.678 36.3301C285.244 36.3301 285.749 36.2161 286.191 35.9883C286.634 35.7604 287.018 35.4382 287.344 35.0215L288.584 36.2227C288.356 36.5547 288.06 36.8737 287.695 37.1797C287.331 37.4792 286.885 37.7233 286.357 37.9121C285.837 38.1009 285.231 38.1953 284.541 38.1953ZM292.959 29.582V38H290.605V27.4336H292.822L292.959 29.582ZM292.578 32.3262L291.777 32.3164C291.777 31.5872 291.868 30.9134 292.051 30.2949C292.233 29.6764 292.5 29.1393 292.852 28.6836C293.203 28.2214 293.639 27.8665 294.16 27.6191C294.688 27.3652 295.296 27.2383 295.986 27.2383C296.468 27.2383 296.908 27.3099 297.305 27.4531C297.708 27.5898 298.057 27.8079 298.35 28.1074C298.649 28.4069 298.877 28.791 299.033 29.2598C299.196 29.7285 299.277 30.2949 299.277 30.959V38H296.924V31.1641C296.924 30.6497 296.846 30.2461 296.689 29.9531C296.54 29.6602 296.322 29.4518 296.035 29.3281C295.755 29.1979 295.42 29.1328 295.029 29.1328C294.587 29.1328 294.209 29.2174 293.896 29.3867C293.59 29.556 293.34 29.7871 293.145 30.0801C292.949 30.373 292.806 30.7116 292.715 31.0957C292.624 31.4798 292.578 31.89 292.578 32.3262ZM299.131 31.7012L298.027 31.9453C298.027 31.3073 298.115 30.7051 298.291 30.1387C298.473 29.5658 298.737 29.0645 299.082 28.6348C299.434 28.1986 299.867 27.8568 300.381 27.6094C300.895 27.362 301.484 27.2383 302.148 27.2383C302.689 27.2383 303.171 27.3132 303.594 27.4629C304.023 27.6061 304.388 27.834 304.688 28.1465C304.987 28.459 305.215 28.8659 305.371 29.3672C305.527 29.862 305.605 30.4609 305.605 31.1641V38H303.242V31.1543C303.242 30.6204 303.164 30.207 303.008 29.9141C302.858 29.6211 302.643 29.4193 302.363 29.3086C302.083 29.1914 301.748 29.1328 301.357 29.1328C300.993 29.1328 300.671 29.2012 300.391 29.3379C300.117 29.4681 299.886 29.6536 299.697 29.8945C299.508 30.1289 299.365 30.3991 299.268 30.7051C299.176 31.0111 299.131 31.3431 299.131 31.7012ZM313.984 35.8809V30.8418C313.984 30.4642 313.916 30.1387 313.779 29.8652C313.643 29.5918 313.434 29.3802 313.154 29.2305C312.881 29.0807 312.536 29.0059 312.119 29.0059C311.735 29.0059 311.403 29.071 311.123 29.2012C310.843 29.3314 310.625 29.5072 310.469 29.7285C310.312 29.9499 310.234 30.2005 310.234 30.4805H307.891C307.891 30.0638 307.992 29.6602 308.193 29.2695C308.395 28.8789 308.688 28.5306 309.072 28.2246C309.456 27.9186 309.915 27.6777 310.449 27.502C310.983 27.3262 311.582 27.2383 312.246 27.2383C313.04 27.2383 313.743 27.3717 314.355 27.6387C314.974 27.9056 315.459 28.3092 315.811 28.8496C316.169 29.3835 316.348 30.054 316.348 30.8613V35.5586C316.348 36.0404 316.38 36.4733 316.445 36.8574C316.517 37.235 316.618 37.5638 316.748 37.8438V38H314.336C314.225 37.7461 314.137 37.4238 314.072 37.0332C314.014 36.6361 313.984 36.252 313.984 35.8809ZM314.326 31.5742L314.346 33.0293H312.656C312.22 33.0293 311.836 33.0716 311.504 33.1562C311.172 33.2344 310.895 33.3516 310.674 33.5078C310.452 33.6641 310.286 33.8529 310.176 34.0742C310.065 34.2956 310.01 34.5462 310.01 34.8262C310.01 35.1061 310.075 35.3633 310.205 35.5977C310.335 35.8255 310.524 36.0046 310.771 36.1348C311.025 36.265 311.331 36.3301 311.689 36.3301C312.171 36.3301 312.591 36.2324 312.949 36.0371C313.314 35.8353 313.6 35.5911 313.809 35.3047C314.017 35.0117 314.128 34.735 314.141 34.4746L314.902 35.5195C314.824 35.7865 314.691 36.0729 314.502 36.3789C314.313 36.6849 314.066 36.9779 313.76 37.2578C313.46 37.5312 313.099 37.7559 312.676 37.9316C312.259 38.1074 311.777 38.1953 311.23 38.1953C310.54 38.1953 309.925 38.0586 309.385 37.7852C308.844 37.5052 308.421 37.1309 308.115 36.6621C307.809 36.1868 307.656 35.6497 307.656 35.0508C307.656 34.4909 307.76 33.9961 307.969 33.5664C308.184 33.1302 308.496 32.7656 308.906 32.4727C309.323 32.1797 309.831 31.9583 310.43 31.8086C311.029 31.6523 311.712 31.5742 312.48 31.5742H314.326ZM321.328 27.4336V38H318.965V27.4336H321.328ZM318.809 24.6602C318.809 24.3021 318.926 24.0059 319.16 23.7715C319.401 23.5306 319.733 23.4102 320.156 23.4102C320.573 23.4102 320.902 23.5306 321.143 23.7715C321.383 24.0059 321.504 24.3021 321.504 24.6602C321.504 25.0117 321.383 25.3047 321.143 25.5391C320.902 25.7734 320.573 25.8906 320.156 25.8906C319.733 25.8906 319.401 25.7734 319.16 25.5391C318.926 25.3047 318.809 25.0117 318.809 24.6602ZM326.426 23V38H324.062V23H326.426Z" fill="black"/>
</svg>
